<svg width="16" height="17" viewBox="0 0 16 17" fill="none" xmlns="http://www.w3.org/2000/svg">
<path d="M3.86569 13.0006C3.56569 12.6007 3.26569 11.9009 2.66569 11.0012C2.36569 10.5013 1.46569 9.50162 1.16569 9.10174C0.965686 8.70185 0.965685 8.50191 1.06569 8.10202C1.16569 7.50219 1.76569 7.00234 2.46569 7.00234C2.96569 7.00234 3.46569 7.40222 3.86569 7.70214C4.06569 7.90208 4.36569 8.30197 4.56569 8.50191C4.76569 8.70185 4.76569 8.80182 4.96569 9.00176C5.16569 9.30168 5.26569 9.50162 5.16569 9.10174C5.06569 8.60188 4.96569 7.80211 4.76569 7.00234C4.66569 6.40251 4.56569 6.30254 4.46569 5.90265C4.36569 5.40279 4.26569 5.10288 4.16569 4.60302C4.06569 4.30311 3.96569 3.50334 3.86569 3.10345C3.76569 2.60359 3.76569 1.70385 4.16569 1.30396C4.46569 1.00405 5.06569 0.904079 5.46569 1.10402C5.96569 1.40394 6.26569 2.10374 6.36569 2.40365C6.56569 2.90351 6.76569 3.60331 6.86569 4.40308C7.06569 5.40279 7.36569 6.90237 7.36569 7.20228C7.36569 6.80239 7.26569 6.10259 7.36569 5.70271C7.46569 5.40279 7.66569 5.00291 8.06569 4.90294C8.36569 4.80297 8.66569 4.80296 8.96569 4.80296C9.26569 4.90294 9.56569 5.10288 9.76569 5.30282C10.1657 5.90265 10.1657 7.20228 10.1657 7.10231C10.2657 6.70242 10.2657 5.90265 10.4657 5.50276C10.5657 5.30282 10.9657 5.10288 11.1657 5.00291C11.4657 4.90294 11.8657 4.90294 12.1657 5.00291C12.3657 5.00291 12.7657 5.30282 12.8657 5.50276C13.0657 5.80268 13.1657 6.80239 13.2657 7.20228C13.2657 7.30225 13.3657 6.80239 13.5657 6.50248C13.9657 5.90265 15.3657 5.70271 15.4657 7.10231C15.4657 7.80211 15.4657 7.70214 15.4657 8.20199C15.4657 8.70185 15.4657 9.00176 15.4657 9.40165C15.4657 9.80154 15.3657 10.7013 15.2657 11.1012C15.1657 11.4011 14.8657 12.1009 14.5657 12.5008C14.5657 12.5008 13.4657 13.7004 13.3657 14.3003C13.2657 14.9001 13.2657 14.9001 13.2657 15.3C13.2657 15.6999 13.3657 16.1997 13.3657 16.1997C13.3657 16.1997 12.5657 16.2997 12.1657 16.1997C11.7657 16.0997 11.2657 15.3999 11.1657 15.1C10.9657 14.8001 10.6657 14.8001 10.4657 15.1C10.2657 15.4999 9.76569 16.1997 9.36569 16.1997C8.66569 16.2997 7.26569 16.1997 6.26569 16.1997C6.26569 16.1997 6.46569 15.2 6.06569 14.8001C5.76569 14.5002 5.26569 14.0003 4.96569 13.7004L3.86569 13.0006Z" fill="white"/>
<path d="M3.86569 13.0006C3.56569 12.6007 3.26569 11.9009 2.66569 11.0012C2.36569 10.5013 1.46569 9.50162 1.16569 9.10174C0.965686 8.70185 0.965685 8.50191 1.06569 8.10202C1.16569 7.50219 1.76569 7.00234 2.46569 7.00234C2.96569 7.00234 3.46569 7.40222 3.86569 7.70214C4.06569 7.90208 4.36569 8.30197 4.56569 8.50191C4.76569 8.70185 4.76569 8.80182 4.96569 9.00176C5.16569 9.30168 5.26569 9.50162 5.16569 9.10174C5.06569 8.60188 4.96569 7.80211 4.76569 7.00234C4.66569 6.40251 4.56569 6.30254 4.46569 5.90265C4.36569 5.40279 4.26569 5.10288 4.16569 4.60302C4.06569 4.30311 3.96569 3.50334 3.86569 3.10345C3.76569 2.60359 3.76569 1.70385 4.16569 1.30396C4.46569 1.00405 5.06569 0.904079 5.46569 1.10402C5.96569 1.40394 6.26569 2.10374 6.36569 2.40365C6.56569 2.90351 6.76569 3.60331 6.86569 4.40308C7.06569 5.40279 7.36569 6.90237 7.36569 7.20228C7.36569 6.80239 7.26569 6.10259 7.36569 5.70271C7.46569 5.40279 7.66569 5.00291 8.06569 4.90294C8.36569 4.80297 8.66569 4.80296 8.96569 4.80296C9.26569 4.90294 9.56569 5.10288 9.76569 5.30282C10.1657 5.90265 10.1657 7.20228 10.1657 7.10231C10.2657 6.70242 10.2657 5.90265 10.4657 5.50276C10.5657 5.30282 10.9657 5.10288 11.1657 5.00291C11.4657 4.90294 11.8657 4.90294 12.1657 5.00291C12.3657 5.00291 12.7657 5.30282 12.8657 5.50276C13.0657 5.80268 13.1657 6.80239 13.2657 7.20228C13.2657 7.30225 13.3657 6.80239 13.5657 6.50248C13.9657 5.90265 15.3657 5.70271 15.4657 7.10231C15.4657 7.80211 15.4657 7.70214 15.4657 8.20199C15.4657 8.70185 15.4657 9.00176 15.4657 9.40165C15.4657 9.80154 15.3657 10.7013 15.2657 11.1012C15.1657 11.4011 14.8657 12.1009 14.5657 12.5008C14.5657 12.5008 13.4657 13.7004 13.3657 14.3003C13.2657 14.9001 13.2657 14.9001 13.2657 15.3C13.2657 15.6999 13.3657 16.1997 13.3657 16.1997C13.3657 16.1997 12.5657 16.2997 12.1657 16.1997C11.7657 16.0997 11.2657 15.3999 11.1657 15.1C10.9657 14.8001 10.6657 14.8001 10.4657 15.1C10.2657 15.4999 9.76569 16.1997 9.36569 16.1997C8.66569 16.2997 7.26569 16.1997 6.26569 16.1997C6.26569 16.1997 6.46569 15.2 6.06569 14.8001C5.76569 14.5002 5.26569 14.0003 4.96569 13.7004L3.86569 13.0006Z" stroke="black" stroke-width="0.75" stroke-linecap="round" stroke-linejoin="round"/>
<path d="M12.166 13.3014V9.90137" stroke="black" stroke-width="0.75" stroke-linecap="round"/>
<path d="M10.1664 13.3014L10.0664 9.90137" stroke="black" stroke-width="0.75" stroke-linecap="round"/>
<path d="M8.16602 9.90137V13.3014" stroke="black" stroke-width="0.75" stroke-linecap="round"/>
</svg>
